PathFileType	4	(X/Y/Z)	53_2_62_p1_0-273.trc
DataRate	CameraRate	NumFrames	NumMarkers	Units	OrigDataRate	OrigDataStartFrame	OrigNumFrames
60.0	60.0	7	27	m	60.0	0	274
Frame#	Time	RHip			RKnee			RAnkle			RBigToe			RSmallToe			RHeel			LHip			LKnee			LAnkle			LBigToe			LSmallToe			LHeel			Neck			Head			Nose			RShoulder			RElbow			RWrist			RThumb			RIndex			RPinky			LShoulder			LElbow			LWrist			LThumb			LIndex			LPinky			
		X1	Y1	Z1	X2	Y2	Z2	X3	Y3	Z3	X4	Y4	Z4	X5	Y5	Z5	X6	Y6	Z6	X7	Y7	Z7	X8	Y8	Z8	X9	Y9	Z9	X10	Y10	Z10	X11	Y11	Z11	X12	Y12	Z12	X13	Y13	Z13	X14	Y14	Z14	X15	Y15	Z15	X16	Y16	Z16	X17	Y17	Z17	X18	Y18	Z18	X19	Y19	Z19	X20	Y20	Z20	X21	Y21	Z21	X22	Y22	Z22	X23	Y23	Z23	X24	Y24	Z24	X25	Y25	Z25	X26	Y26	Z26	X27	Y27	Z27	
0	0.0	0.40412855172547113	0.6045796072182894	0.7042460088638558	0.40517775562558805	0.7618683227979417	1.1389772303825578	0.36939212735407045	0.8880767469423294	1.5315283350607367	0.32093725595537237	0.738997184546976	1.5706388337451629	0.3809068062293737	0.7377714825584757	1.5736902196514022	0.32520126836522717	0.9874599569469079	1.601566442271406	0.2008227531870442	0.6366625471428784	0.7152404282167076	0.16773819976503274	0.7989474581249197	1.1497826862011802	0.1610893297550603	0.8993428989727148	1.5520145158802194	0.17244148400009202	0.7349182969444467	1.5635678369602888	0.11395181243147101	0.761166193583331	1.5597882353169799	0.17436495669279786	0.929232854076302	1.5828334129042563	0.31941377892841244	0.5087201474367529	0.19465282965565475	0.3198233106159304	0.43712694398209706	-0.042335602468248135	0.3205135873281394	0.3269611685875438	0.09566551270946355	0.45888741742534533	0.5349048251512597	0.2596998646117179	0.4691034275135922	0.5501004854441217	0.5293871350672716	0.32983891640100377	0.4240867957527984	0.702016928306315	0.2511927779073547	0.34656570016388	0.7333023756208367	0.24523970054649394	0.37519062585526985	0.7661805322007649	0.2521803450898213	0.4301758909734495	0.7806519539952048	0.17114470943693136	0.590022550219877	0.23491183238786723	0.12844002219978068	0.5646269113903819	0.5132949658210373	0.21569163286199933	0.42378713323834616	0.6760282461782329	0.26255934817691456	0.3402033017540538	0.7191341357524991	0.2611572077769933	0.3361225109705096	0.7472120556148906	0.24859629320767623	0.4191154936574996	0.7676002199444204
1	0.016666666666666666	0.4002852997801194	0.620104467353415	0.7096890131865565	0.4051964090769728	0.7608615129877763	1.1428969789242596	0.3646510496185614	0.8881452797786178	1.5312079478429834	0.32251871269377297	0.7405213143056213	1.5700086484907472	0.37282414376950995	0.7525493203190332	1.5750668567851844	0.3251221925179571	0.98966890814818	1.5970337692588132	0.19989276405290135	0.6369553321866619	0.7191260018273126	0.1666602862358437	0.8000658729565523	1.1542653039059034	0.16118443531063917	0.8998598719084374	1.5520090262850292	0.1752502497919136	0.7495671726713228	1.5692906973691418	0.11039866405419227	0.7768984182761494	1.5622846321883783	0.17445727368213754	0.9310950060465581	1.5788350662234796	0.3194212713532911	0.508562470813229	0.1945852834135595	0.3199237761862862	0.43702754956577694	-0.04224308788452648	0.3205561498506614	0.32700836256662746	0.09557945329327179	0.45908227597857026	0.5341654849577675	0.25585743018597973	0.4736015825771742	0.5504263927948309	0.5297168709433515	0.33406039720996517	0.42496507277345025	0.7022137080722807	0.2516681302023509	0.3484314416833327	0.7370703243714598	0.24479691175154686	0.3762908565068241	0.7691316450779833	0.2592274856448911	0.44325359910987744	0.7894479796714053	0.17113744323962965	0.590000501747658	0.23464620953474888	0.12845415510504946	0.5643197216867734	0.5132114953124004	0.22027663782852738	0.426938390928499	0.6804050116275503	0.2631436211542306	0.34169521600583297	0.7225552458975985	0.26476518191487225	0.3479784537957011	0.7633567480227715	0.2517532425962288	0.4310770692553407	0.7769749058491782
2	0.03333333333333333	0.4003206212905468	0.6202865182382306	0.7098198076795154	0.4051023679759977	0.7608672963739669	1.1428719974053492	0.36565389945858034	0.8866066067535915	1.52666529358793	0.3223911855609349	0.740348833078362	1.5698604149085211	0.37641796577045794	0.7649002766583433	1.5799147542327479	0.32500029863631247	0.9893319507210245	1.5970450679086547	0.19989252157458143	0.6370597458038302	0.7191779488446627	0.16782709095460968	0.7984688929436285	1.1539767804414962	0.16111597308857184	0.8999630975318719	1.5520711118837118	0.1753399747159443	0.7500478623469525	1.5694901711637068	0.1104468518587583	0.7771147558174095	1.562438018826976	0.174190629281981	0.9305232159483858	1.578735158344965	0.3194167166670153	0.5086153448264646	0.19464205088888953	0.3199557546945964	0.43695042947744994	-0.04224423406170148	0.32036952989815703	0.3255170483526893	0.09255377648871925	0.4587425819360767	0.5345680572245235	0.25955254330370264	0.4736706360288461	0.5503132697500132	0.5296523131591981	0.33311972856644656	0.4239279817275258	0.7022259172514765	0.252127935540641	0.3501165815845123	0.7413741933798567	0.2443646369217934	0.37617931248319536	0.7764163257678885	0.26204313080236974	0.4568829131265319	0.7982864167526058	0.17112552670650286	0.5900590781849617	0.23464564099967675	0.1285602593383756	0.5663107693495558	0.5169902834601505	0.22036775749174464	0.4270272318682	0.6805240100637995	0.2662164982036561	0.3535981209184208	0.7312583168843608	0.2646838441580124	0.3483123393975965	0.7638719518331882	0.25106548332425016	0.4309952037654247	0.7846445656758255
3	0.05	0.39970872418212217	0.6211158735427613	0.7134674155630852	0.4042609579824923	0.7620911379603033	1.1472334065138983	0.36460824787299323	0.8881812035775024	1.5312535873150208	0.32243695161772795	0.7401979637374133	1.5697525315459437	0.3762444178034162	0.7642131932090004	1.5796047416710033	0.32503428097417175	0.9894247291434388	1.5974733531654224	0.19872704256715026	0.6358061425757064	0.7178361601090247	0.16618165269762697	0.7966465609437182	1.1528457103872176	0.1610632095485724	0.8999867860375366	1.5522027457746483	0.17533408643491483	0.7498529364730233	1.5694226830069622	0.11050911549187496	0.7769417651009229	1.5623929983373679	0.17428257611972192	0.9311167859624421	1.5789817806498174	0.3160683048498404	0.5213341109936368	0.19399536322907324	0.3199468051178644	0.4369064619212732	-0.042296304482199176	0.3205482184871784	0.3270623175948456	0.09563759782001424	0.45875618075090896	0.5346916315255588	0.25960047474400927	0.47365141683912143	0.5508483272052426	0.5372895798236226	0.33355027679963756	0.42590348333403116	0.7061009367579313	0.252185440106241	0.3498503852034551	0.7458011273499439	0.24435866871815742	0.3753611111655629	0.7804218383561117	0.25838488773821117	0.4440465310426502	0.7988047407718398	0.17110690958233657	0.5901334708655934	0.23460788711044253	0.12836426545429666	0.5644249099553255	0.5132880431393109	0.2203428720338248	0.4274662696086027	0.6805298554860951	0.2599355145471341	0.35891088613555466	0.7346489374229798	0.2644198662372805	0.3482958413837188	0.7643099073329004	0.2510824581411092	0.4318761290644747	0.784765171365323
4	0.06666666666666667	0.40028230889112293	0.6202938873438169	0.7097456181477035	0.4052844582542409	0.7606196914412954	1.142870426564306	0.36457639730032	0.888187218248322	1.5311725207054123	0.32237972737545684	0.7402702927075145	1.5698239767429292	0.3753523299121382	0.7336051704571817	1.5676154759418892	0.3295253254026034	1.006024332188827	1.6032947669473454	0.20017322410045738	0.6342070574382654	0.7103374993178152	0.1618846636238579	0.7952834945719326	1.1523299849892754	0.16111902144408635	0.8998876567857914	1.5521119077982057	0.1763798871879818	0.7482157166058101	1.5649761236051456	0.11042618012967108	0.7769734982543827	1.5623319812613683	0.17450299266120906	0.931454390362419	1.578990023360251	0.3160860340413082	0.5213603185701488	0.19404170599705067	0.3199307297601999	0.43702018900056444	-0.04227181368843433	0.3205456137308474	0.327007200407468	0.09563940050600857	0.45877406386218755	0.5346727734295139	0.2595973107713359	0.4741764094219935	0.550199982048842	0.534034064337446	0.33410963042605046	0.42495986284315296	0.7028863144588023	0.25214274515007795	0.3498219814683584	0.7461688248161188	0.2408198282282747	0.3873159777938599	0.7823118200098643	0.2588865068091057	0.4430802276971989	0.796252926890967	0.1711046569623919	0.590144946762542	0.23467392971190146	0.128583458821739	0.5662236861490583	0.516916414456247	0.22034535086249799	0.42755193687978793	0.6805687297453643	0.25681425869234287	0.3493537268253083	0.7336268029680008	0.2613295827092379	0.33746509575654526	0.7662711312405727	0.25165670064546153	0.431405107293863	0.7810962043486648
5	0.08333333333333333	0.3996274968427599	0.618413025818994	0.7056836680360964	0.4052023235585173	0.7607009086646164	1.1429058669772023	0.365690015820575	0.8866768101070789	1.5267016587766429	0.3224639538090019	0.7407250460027015	1.5700397375607547	0.37566456811830207	0.7345143093982441	1.5680024579213632	0.3307551180732248	1.004208714014058	1.5979867639425605	0.19943567670248993	0.6348791097335981	0.7139538278557687	0.16183491267834488	0.7951306254742778	1.1523131386606384	0.1611076331542631	0.8999795476054009	1.552181738613138	0.17644284691062412	0.7482323098401046	1.5649783574416083	0.11045013263612843	0.7766114896644318	1.5621679293607738	0.17443065227514937	0.930778890164411	1.5787864333251351	0.3194701640105084	0.5086952040838105	0.1946945789556574	0.3199405680956973	0.4370601332546164	-0.04224373105098831	0.3205699971871181	0.32711428521519575	0.09562785705608717	0.4588238560485922	0.5348509361930149	0.2596466845010416	0.4742079689415777	0.5500724327888448	0.5340935237486032	0.3292199005817892	0.42509986680288064	0.7060705827696814	0.2521188629428768	0.3501440058334199	0.7465754169025026	0.24129993396817298	0.38948839335627083	0.7866475875952101	0.25537575313107885	0.45482256269309684	0.7981144816892888	0.171174706453424	0.5900683735001025	0.2346175960272074	0.12855459114890821	0.5661479426936525	0.5169702898800814	0.22048593650986095	0.42691689667350635	0.6842359244919618	0.2569273044387003	0.34904988935591136	0.7372138253545423	0.26067232955693004	0.3381554365618936	0.7702597996296269	0.2512958646445719	0.4336413005720388	0.7890333700804759
6	0.1	0.3997618185203341	0.6178131808023153	0.7097499373615759	0.4052184719297171	0.760970455586959	1.142950294579906	0.3656662834549708	0.8866476712566521	1.5266638685280702	0.3224634708476465	0.7406066515042119	1.569932106792613	0.3762171190094136	0.7647710596111119	1.5798203669677306	0.326270284440034	0.9877672201180139	1.5919595312488046	0.19943118358300857	0.6348089393839005	0.7140671462357102	0.16184211229916673	0.7950053862974572	1.1522667468998975	0.16102879457946911	0.8995097979191484	1.552069314386823	0.17650436309921838	0.7487110797938534	1.5652425871204618	0.11104732286966298	0.7802312947622698	1.5677319486284824	0.17418324047528494	0.9299310527183111	1.5785727175557942	0.3161129787821155	0.5213706836087038	0.19405170193280324	0.31994146692324205	0.4370165529675394	-0.04223591444457278	0.3205602288947008	0.3271969122491304	0.09569173262751011	0.4589104707307431	0.535172957072346	0.2597219826175366	0.47481345229756494	0.5520490859702305	0.5381591099023529	0.32921851002309227	0.4250998851071647	0.7061824574231917	0.25226665840727597	0.34974085219611584	0.7502545847264633	0.24135421669048096	0.38975154555877534	0.7867405895832361	0.2583830794424093	0.4438216619399123	0.798940098203441	0.1711982191155424	0.5900490596300325	0.23477097731307112	0.12852879529821584	0.5659733645572645	0.5170564783438407	0.2204686528485572	0.4266562164693618	0.6842632591480039	0.26018777743416965	0.35897047484208	0.7388874982805198	0.2606431824710283	0.3383938270729523	0.770446256538529	0.25134936847793354	0.4328222355876929	0.7923563599834155
